<?xml version="1.0" encoding="UTF-8" standalone="no"?>
<svg width="163px" height="163px" viewBox="0 0 163 163" version="1.1" xmlns="http://www.w3.org/2000/svg" xmlns:xlink="http://www.w3.org/1999/xlink" xmlns:sketch="http://www.bohemiancoding.com/sketch/ns">
    <!-- Generator: Sketch 3.3 (11970) - http://www.bohemiancoding.com/sketch -->
    <title>Oval 3</title>
    <desc>Created with Sketch.</desc>
    <defs>
        <filter x="-50%" y="-50%" width="200%" height="200%" filterUnits="objectBoundingBox" id="filter-1">
            <feOffset dx="0" dy="6" in="SourceAlpha" result="shadowOffsetOuter1"></feOffset>
            <feGaussianBlur stdDeviation="9" in="shadowOffsetOuter1" result="shadowBlurOuter1"></feGaussianBlur>
            <feColorMatrix values="0 0 0 0 0   0 0 0 0 0   0 0 0 0 0  0 0 0 0.35 0" in="shadowBlurOuter1" type="matrix" result="shadowMatrixOuter1"></feColorMatrix>
            <feMerge>
                <feMergeNode in="shadowMatrixOuter1"></feMergeNode>
                <feMergeNode in="SourceGraphic"></feMergeNode>
            </feMerge>
        </filter>
    </defs>
    <g id="Page-1" stroke="none" stroke-width="1" fill="none" fill-rule="evenodd" sketch:type="MSPage">
        <g id="Sign-in-Page" sketch:type="MSArtboardGroup" transform="translate(-306.000000, -24.000000)" filter="url(#filter-1)" fill="#FFFFFF">
            <g id="Announcement-App-+-Oval-3" sketch:type="MSLayerGroup" transform="translate(323.000000, 35.000000)">
                <path d="M64.5,129 C100.122366,129 129,100.122366 129,64.5 C129,28.8776336 100.122366,0 64.5,0 C28.8776336,0 0,28.8776336 0,64.5 C0,100.122366 28.8776336,129 64.5,129 Z M83.0329014,55.8678775 C80.0661416,43.9688541 74.1758537,35.1836282 69.8501723,36.1811235 C69.8672658,36.1764842 69.883975,36.1708084 69.9013941,36.1664654 L64.9871951,37.3917128 C64.9871951,37.3917128 55.6062788,48.9355177 39.8388719,56.4785016 C40.0004598,59.2871869 40.4734375,62.5648555 41.392261,66.2500552 C42.3110845,69.9352549 43.4319756,73.0512548 44.6081368,75.6069786 C62.0707918,74.8647774 75.7735224,80.6533086 75.7735224,80.6533086 L80.6877214,79.4280612 C80.6705393,79.4323452 80.6531213,79.4351783 80.6355841,79.4390476 C84.9235853,78.2889106 85.9996611,67.7669009 83.0329014,55.8678775 Z M78.1791689,76.5775291 C77.6232984,76.7161232 76.87808,76.2891322 76.4834296,76.0223185 C75.5276065,75.376099 74.4836023,74.2590884 73.4635237,72.7917849 C71.1814613,69.5093812 69.2106877,64.8378503 67.9140167,59.6371872 C66.6174639,54.4369979 66.1643733,49.3869403 66.6382606,45.4171496 C66.8497533,43.6429067 67.247357,42.1663371 67.7880355,41.1469978 C68.0111411,40.7257828 68.4686993,39.9990317 69.0245698,39.8604376 C69.5802034,39.7219026 70.3259252,40.1488939 70.7201312,40.4159442 C71.6762208,41.0622231 72.7201954,42.1791153 73.740274,43.6464187 C76.022366,46.9289408 77.9931987,51.6007086 79.2897515,56.800898 C80.5861862,62.0006136 81.0393654,67.0510265 80.5655372,71.0210541 C80.3541035,72.7955338 79.9562038,74.2719257 79.4155253,75.291265 C79.1928051,75.7120064 78.7351579,76.4389055 78.1791689,76.5775291 L78.1791689,76.5775291 Z M37.2818288,67.2749011 C36.5147645,64.198374 35.9951426,61.1526192 35.7352068,58.2821527 C33.0252539,59.3700819 30.6179545,60.207431 27.572694,60.9666997 L23.5996001,61.9573032 L21.7113962,68.3840583 L23.0132645,73.6055672 L27.6972729,78.3936856 L31.6704853,77.4030525 C34.7157458,76.6437838 37.2344356,76.2531974 40.1378748,75.9412992 C39.0201376,73.2847066 38.0489227,70.3515465 37.2818288,67.2749011 L37.2818288,67.2749011 Z M47.3184919,78.1653989 L39.3728864,78.604724 L48.9696193,96.4377406 C49.4662047,97.3602458 50.5684287,97.6143136 51.4186486,97.0005097 L57.7422784,92.4390088 C58.592794,91.825886 58.7113427,90.6900018 58.0062796,89.9147101 L47.3184919,78.1653989 L47.3184919,78.1653989 Z M75.3660583,65.2947586 C75.1514598,65.348264 74.8646052,65.1836495 74.712352,65.080835 C74.343664,64.8318284 73.9416417,64.4011679 73.5484275,63.8357131 C72.6690956,62.5704595 71.9094361,60.7700106 71.4097148,58.7657376 C70.9099934,56.7614647 70.7354733,54.8151241 70.9178767,53.2851501 C70.9995993,52.6012803 71.1529736,52.0321439 71.3610117,51.6393434 C71.4471454,51.4769665 71.623141,51.1969504 71.8377395,51.143445 C72.052101,51.0899987 72.3394591,51.2546135 72.4914754,51.3574871 C72.8601633,51.6064937 73.2621561,52.0370357 73.6551629,52.602668 C74.5347022,53.8677442 75.2943912,55.6683115 75.7941126,57.6725845 C76.2938044,59.676739 76.468354,61.623198 76.2857137,63.153231 C76.204228,63.8370418 76.0508537,64.4061782 75.8428156,64.7989787 C75.7568894,64.961178 75.5804198,65.2413123 75.3660583,65.2947586 L75.3660583,65.2947586 Z M104.242533,75.7369668 C103.89448,75.8237464 103.611714,75.801696 103.241935,75.8013406 C101.632356,75.6473436 100.349442,74.2087273 100.502195,72.5972629 C101.724663,58.2246075 98.3789831,44.8058162 90.5520542,32.689429 C89.6606452,31.3383032 90.0309874,29.4874841 91.4668781,28.574166 C92.8157554,27.6825429 94.6645375,28.0545551 95.5776717,29.492816 C104.143821,42.7206188 107.815379,57.4464352 106.461996,73.1474552 C106.39637,74.3669898 105.460722,75.4332384 104.242533,75.7369668 L104.242533,75.7369668 Z M93.7660225,73.1777716 C93.4298352,73.2615925 93.0719047,73.2582065 92.7139743,73.2548206 C90.9866258,73.1297287 89.689552,71.5079365 89.8647606,69.7043193 C90.6233112,59.1408504 88.1445959,49.1992664 82.5155873,40.2283949 C81.5981871,38.6971956 82.0037931,36.7435058 83.3644342,35.7558635 C84.8308653,34.8344729 86.7292331,35.2874371 87.7089371,36.7104743 C94.1060698,46.9718797 96.9109318,58.2215668 96.0800369,70.2851219 C95.9859495,71.6980012 95.026725,72.8634432 93.7660225,73.1777716 L93.7660225,73.1777716 Z" id="Oval-3" sketch:type="MSShapeGroup"></path>
            </g>
        </g>
    </g>
</svg>