<?xml version="1.0" encoding="utf-8"?>
<!-- Generator: Adobe Illustrator 19.0.0, SVG Export Plug-In . SVG Version: 6.00 Build 0)  -->
<svg version="1.1" id="Layer_1" xmlns="http://www.w3.org/2000/svg" xmlns:xlink="http://www.w3.org/1999/xlink" x="0px" y="0px"
	 viewBox="-260 340.5 90 89.5" style="enable-background:new -260 340.5 90 89.5;" xml:space="preserve">
<style type="text/css">
	.st0{fill:#959595;}
</style>
<g>
	<path class="st0" d="M-182.7,359.5h-15.6c-6.1,0-11,5-11,11v23.4c0,3.5,2.9,6.4,6.4,6.4h1.4v23.3c0,3.5,2.9,6.4,6.4,6.4
		c1.8,0,3.5-0.7,4.7-2.1c1.2,1.3,2.9,2.1,4.7,2.1c3.5,0,6.4-2.9,6.4-6.4v-23.3h1.4c3.5,0,6.4-2.9,6.4-6.4v-23.3
		C-171.7,364.5-176.6,359.5-182.7,359.5z M-175.1,394c0,1.7-1.3,3-3,3h-1.4v-23.3c0-0.9-0.8-1.7-1.7-1.7s-1.7,0.8-1.7,1.7v49.8
		c0,1.5-1,2.9-2.5,3.1c-1.9,0.3-3.5-1.1-3.5-2.9v-25c0-0.9-0.8-1.7-1.7-1.7l0,0c-0.9,0-1.7,0.8-1.7,1.7v25c0,1.8-1.7,3.2-3.5,2.9
		c-1.5-0.3-2.5-1.6-2.5-3.1v-49.8c0-0.9-0.8-1.7-1.7-1.7c-0.9,0-1.7,0.8-1.7,1.7V397h-1.3c-1.7,0-3-1.3-3-3v-23.4
		c0-4.2,3.4-7.7,7.7-7.7h15.6c4.2,0,7.7,3.4,7.7,7.7V394H-175.1z"/>
	<path class="st0" d="M-190.5,358.4c4.8,0,8.7-3.9,8.7-8.7c0-4.8-3.9-8.7-8.7-8.7c-4.8,0-8.7,3.9-8.7,8.7
		C-199.2,354.5-195.3,358.4-190.5,358.4z M-190.5,344.4c2.9,0,5.3,2.4,5.3,5.3c0,2.9-2.4,5.3-5.3,5.3s-5.3-2.4-5.3-5.3
		C-195.9,346.8-193.5,344.4-190.5,344.4z"/>
	<path class="st0" d="M-222.1,368L-222.1,368L-222.1,368c-1.2-5-5.6-8.5-10.7-8.5h-9.4c-5.1,0-9.5,3.5-10.7,8.4l-5.7,23.4
		c-0.8,3.4,1.3,6.9,4.7,7.7l1.4,0.3l-1.5,6.7c0,0.1,0,0.2,0,0.2c0,0.2,0,0.4,0,0.6c0,0.3,0.1,0.5,0.3,0.7s0.3,0.4,0.6,0.5
		c0.2,0.1,0.4,0.1,0.6,0.2c0.1,0,0.2,0,0.2,0h3.8v15.5c0,3.5,2.9,6.4,6.4,6.4c1.8,0,3.5-0.7,4.7-2.1c1.2,1.3,2.9,2.1,4.7,2.1
		c3.5,0,6.4-2.9,6.4-6.4v-15.6h3.7c0.1,0,0.1,0,0.2,0c0.2,0,0.4-0.1,0.6-0.2s0.4-0.3,0.6-0.5c0.2-0.2,0.3-0.4,0.3-0.7
		c0-0.2,0.1-0.4,0-0.6c0-0.1,0-0.1,0-0.2l-1.6-6.7l1.5-0.4c1.6-0.4,3-1.4,3.9-2.9c0.9-1.4,1.2-3.1,0.8-4.8L-222.1,368z
		 M-220.2,394.4c-0.4,0.7-1.1,1.2-1.9,1.3l-1.5,0.4l-5.4-22.9c-0.2-0.9-1.1-1.5-2-1.2l0,0c-0.9,0.2-1.5,1.1-1.2,2l7.2,30.7h-5v3.3
		v15.5c0,1.5-1,2.9-2.5,3.1c-1.9,0.3-3.5-1.1-3.5-2.9v-17.2c0-0.9-0.8-1.7-1.7-1.7c-0.9,0-1.6,0.7-1.6,1.7v17.2
		c0,1.8-1.7,3.2-3.5,2.9c-1.5-0.3-2.5-1.7-2.5-3.1v-18.8h-5l7.3-30.7c0.2-0.9-0.3-1.8-1.3-2c-0.9-0.2-1.8,0.3-2,1.3l-5.4,22.7
		l-1.4-0.3c-0.8-0.2-1.4-0.7-1.9-1.3c-0.4-0.7-0.6-1.5-0.4-2.3l5.6-23.3l0.4-1c1.1-3,3.9-4.9,7.1-4.9h9.4c3.6,0,6.6,2.4,7.5,5.9
		l5.6,23.3l0,0C-219.7,392.9-219.8,393.7-220.2,394.4z"/>
	<path class="st0" d="M-237.6,358.4c4.8,0,8.7-3.9,8.7-8.7c0-4.8-3.9-8.7-8.7-8.7s-8.7,3.9-8.7,8.7
		C-246.3,354.5-242.4,358.4-237.6,358.4z M-237.6,344.4c2.9,0,5.3,2.4,5.3,5.3c0,2.9-2.4,5.3-5.3,5.3c-2.9,0-5.3-2.4-5.3-5.3
		C-242.9,346.8-240.5,344.4-237.6,344.4z"/>
</g>
</svg>
