<?xml version="1.0" encoding="utf-8"?>
<!-- Generator: Adobe Illustrator 19.0.0, SVG Export Plug-In . SVG Version: 6.00 Build 0)  -->
<svg version="1.1" id="Layer_1" xmlns="http://www.w3.org/2000/svg" xmlns:xlink="http://www.w3.org/1999/xlink" x="0px" y="0px"
	 viewBox="-255 348.8 100 96.2" style="enable-background:new -255 348.8 100 96.2;" xml:space="preserve">
<style type="text/css">
	.st0{fill:#B2B2B2;}
</style>
<path class="st0" d="M-205,387.2c-7.2,0-13,5.8-13,13s5.8,13,13,13s13-5.8,13-13S-197.8,387.2-205,387.2z"/>
<path class="st0" d="M-168,368.2h-15c0-7.2-5.8-13-13-13h-18c-7.2,0-13,5.8-13,13h-15c-7.2,0-13,5.8-13,13v38c0,7.2,5.8,13,13,13h74
	c7.2,0,13-5.8,13-13v-38C-155,374-160.8,368.2-168,368.2z M-205,423.2c-12.7,0-23-10.3-23-23s10.3-23,23-23s23,10.3,23,23
	S-192.3,423.2-205,423.2z"/>
</svg>
