<?xml version="1.0" encoding="utf-8"?>
<!-- Generator: Adobe Illustrator 19.0.0, SVG Export Plug-In . SVG Version: 6.00 Build 0)  -->
<svg version="1.1" id="Layer_1" xmlns="http://www.w3.org/2000/svg" xmlns:xlink="http://www.w3.org/1999/xlink" x="0px" y="0px"
	 viewBox="-259.8 352.5 45.1 89.5" style="enable-background:new -259.8 352.5 45.1 89.5;" xml:space="preserve">
<style type="text/css">
	.st0{fill:#959595;}
</style>
<g>
	<path class="st0" d="M-222,379.7L-222,379.7L-222,379.7c-1.2-5-5.6-8.5-10.7-8.5h-9.4c-5.1,0-9.5,3.5-10.7,8.4l-5.7,23.4
		c-0.8,3.4,1.3,6.9,4.7,7.7l1.4,0.3l-1.5,6.7c0,0.1,0,0.2,0,0.2c0,0.2,0,0.4,0,0.6c0,0.3,0.1,0.5,0.3,0.7s0.3,0.4,0.6,0.5
		c0.2,0.1,0.4,0.1,0.6,0.2c0.1,0,0.2,0,0.2,0h3.8v15.5c0,3.5,2.9,6.4,6.4,6.4c1.8,0,3.5-0.7,4.7-2.1c1.2,1.3,2.9,2.1,4.7,2.1
		c3.5,0,6.4-2.9,6.4-6.4v-15.6h3.7c0.1,0,0.1,0,0.2,0c0.2,0,0.4-0.1,0.6-0.2s0.4-0.3,0.6-0.5c0.2-0.2,0.3-0.4,0.3-0.7
		c0-0.2,0.1-0.4,0-0.6c0-0.1,0-0.1,0-0.2l-1.6-6.7l1.5-0.4c1.6-0.4,3-1.4,3.9-2.9c0.9-1.4,1.2-3.1,0.8-4.8L-222,379.7z
		 M-220.1,406.1c-0.4,0.7-1.1,1.2-1.9,1.3l-1.5,0.4l-5.4-22.9c-0.2-0.9-1.1-1.5-2-1.2l0,0c-0.9,0.2-1.5,1.1-1.2,2l7.2,30.7h-5v3.3
		v15.5c0,1.5-1,2.9-2.5,3.1c-1.9,0.3-3.5-1.1-3.5-2.9v-17.2c0-0.9-0.8-1.7-1.7-1.7s-1.6,0.7-1.6,1.7v17.2c0,1.8-1.7,3.2-3.5,2.9
		c-1.5-0.3-2.5-1.7-2.5-3.1v-18.8h-5l7.3-30.7c0.2-0.9-0.3-1.8-1.3-2c-0.9-0.2-1.8,0.3-2,1.3l-5.4,22.7l-1.4-0.3
		c-0.8-0.2-1.4-0.7-1.9-1.3c-0.4-0.7-0.6-1.5-0.4-2.3l5.6-23.3l0.4-1c1.1-3,3.9-4.9,7.1-4.9h9.4c3.6,0,6.6,2.4,7.5,5.9l5.6,23.3l0,0
		C-219.6,404.6-219.7,405.4-220.1,406.1z"/>
	<path class="st0" d="M-237.5,370.1c4.8,0,8.7-3.9,8.7-8.7c0-4.8-3.9-8.7-8.7-8.7s-8.7,3.9-8.7,8.7S-242.3,370.1-237.5,370.1z
		 M-237.5,356.1c2.9,0,5.3,2.4,5.3,5.3s-2.4,5.3-5.3,5.3c-2.9,0-5.3-2.4-5.3-5.3C-242.8,358.5-240.4,356.1-237.5,356.1z"/>
</g>
</svg>
