<?xml version="1.0" encoding="utf-8"?>
<!-- Generator: Adobe Illustrator 19.0.0, SVG Export Plug-In . SVG Version: 6.00 Build 0)  -->
<svg version="1.1" id="Layer_1" xmlns="http://www.w3.org/2000/svg" xmlns:xlink="http://www.w3.org/1999/xlink" x="0px" y="0px"
	 viewBox="-209.2 352.5 37.8 89.5" style="enable-background:new -209.2 352.5 37.8 89.5;" xml:space="preserve">
<style type="text/css">
	.st0{fill:#959595;}
</style>
<g>
	<path class="st0" d="M-182.6,371.2h-15.6c-6.1,0-11,5-11,11v23.4c0,3.5,2.9,6.4,6.4,6.4h1.4v23.3c0,3.5,2.9,6.4,6.4,6.4
		c1.8,0,3.5-0.7,4.7-2.1c1.2,1.3,2.9,2.1,4.7,2.1c3.5,0,6.4-2.9,6.4-6.4V412h1.4c3.5,0,6.4-2.9,6.4-6.4v-23.3
		C-171.6,376.2-176.5,371.2-182.6,371.2z M-175,405.7c0,1.7-1.3,3-3,3h-1.4v-23.3c0-0.9-0.8-1.7-1.7-1.7s-1.7,0.8-1.7,1.7v49.8
		c0,1.5-1,2.9-2.5,3.1c-1.9,0.3-3.5-1.1-3.5-2.9v-25c0-0.9-0.8-1.7-1.7-1.7l0,0c-0.9,0-1.7,0.8-1.7,1.7v25c0,1.8-1.7,3.2-3.5,2.9
		c-1.5-0.3-2.5-1.6-2.5-3.1v-49.8c0-0.9-0.8-1.7-1.7-1.7s-1.7,0.8-1.7,1.7v23.3h-1.3c-1.7,0-3-1.3-3-3v-23.4c0-4.2,3.4-7.7,7.7-7.7
		h15.6c4.2,0,7.7,3.4,7.7,7.7v23.4H-175z"/>
	<path class="st0" d="M-190.4,370.1c4.8,0,8.7-3.9,8.7-8.7c0-4.8-3.9-8.7-8.7-8.7s-8.7,3.9-8.7,8.7S-195.2,370.1-190.4,370.1z
		 M-190.4,356.1c2.9,0,5.3,2.4,5.3,5.3s-2.4,5.3-5.3,5.3s-5.3-2.4-5.3-5.3C-195.8,358.5-193.4,356.1-190.4,356.1z"/>
</g>
</svg>
