<?xml version="1.0" encoding="UTF-8" standalone="no"?>
<svg width="84px" height="85px" viewBox="0 0 84 85" version="1.1" xmlns="http://www.w3.org/2000/svg" xmlns:xlink="http://www.w3.org/1999/xlink" xmlns:sketch="http://www.bohemiancoding.com/sketch/ns">
    <!-- Generator: Sketch 3.3 (11970) - http://www.bohemiancoding.com/sketch -->
    <title>Rectangle 22 + username</title>
    <desc>Created with Sketch.</desc>
    <defs></defs>
    <g id="Page-1" stroke="none" stroke-width="1" fill="none" fill-rule="evenodd" sketch:type="MSPage">
        <g id="Sign-in-Page" sketch:type="MSArtboardGroup" transform="translate(-422.000000, -329.000000)">
            <g id="Group" sketch:type="MSLayerGroup" transform="translate(422.000000, 307.000000)">
                <g id="Username-+-username-+-Line" transform="translate(0.000000, 22.000000)" sketch:type="MSShapeGroup">
                    <g id="Rectangle-22-+-username">
                        <rect id="Rectangle-22" fill="#2B6D6A" x="0" y="0" width="84" height="85"></rect>
                        <g id="username" transform="translate(13.500000, 14.000000)">
                            <g id="group" transform="translate(3.420000, 3.420000)" stroke="#FFFFFF" stroke-width="2">
                                <circle id="oval" cx="25.08" cy="25.08" r="25.08"></circle>
                                <path d="M25.0515,28.4618729 C29.424825,28.4618729 33.003,24.8794515 33.003,20.5009365 C33.003,16.1224214 29.424825,12.54 25.0515,12.54 C20.678175,12.54 17.1,16.1224214 17.1,20.5009365 C17.1,24.8794515 20.678175,28.4618729 25.0515,28.4618729 L25.0515,28.4618729 Z" id="shape"></path>
                                <path d="M43.32,40.9866221 C43.32,34.8666522 31.236,31.92 25.08,31.92 C18.924,31.92 6.84,34.8666522 6.84,40.9866221" id="Path"></path>
                            </g>
                            <rect id="bounds" x="0" y="0" width="57" height="56.2083333"></rect>
                        </g>
                    </g>
                </g>
            </g>
        </g>
    </g>
</svg>